<?xml version="1.0" encoding="UTF-8" standalone="no"?>
<!DOCTYPE svg PUBLIC "-//W3C//DTD SVG 1.1//EN" "http://www.w3.org/Graphics/SVG/1.1/DTD/svg11.dtd">
<svg width="100%" height="100%" viewBox="0 0 65 64" version="1.1" xmlns="http://www.w3.org/2000/svg" xmlns:xlink="http://www.w3.org/1999/xlink" xml:space="preserve" xmlns:serif="http://www.serif.com/" style="fill-rule:evenodd;clip-rule:evenodd;stroke-linejoin:round;stroke-miterlimit:2;">
    <g transform="matrix(1,0,0,1,-2309,-77.5946)">
        <g transform="matrix(0.149547,0,0,0.453451,1963.57,77.5946)">
            <rect id="logo" x="2309.82" y="0" width="428.194" height="141.14" style="fill:none;"/>
            <clipPath id="_clip1">
                <rect id="logo1" serif:id="logo" x="2309.82" y="0" width="428.194" height="141.14"/>
            </clipPath>
            <g clip-path="url(#_clip1)">
                <g transform="matrix(2.13996,0,0,0.706127,1945.99,-162.452)">
                    <g transform="matrix(1,0,0,1,-1148.05,-7.27596e-12)">
                        <path d="M1503.05,315C1511.33,315 1518.05,321.721 1518.05,330C1518.05,338.279 1511.33,345 1503.05,345L1333.07,345C1324.79,345 1318.07,338.279 1318.07,330C1318.07,321.721 1324.79,315 1333.07,315L1503.05,315Z" style="fill:white;fill-opacity:0.8;"/>
                    </g>
                    <g transform="matrix(1,0,0,1,-1273.05,146.762)">
                        <path d="M1541.63,95.923C1542.91,87.779 1550.56,82.204 1558.7,83.481C1566.85,84.759 1572.42,92.409 1571.14,100.553L1565.06,139.354C1563.92,146.591 1566.01,153.962 1570.77,159.529C1575.53,165.096 1582.49,168.301 1589.82,168.301L1628.05,168.301C1636.3,168.301 1642.99,174.994 1642.99,183.238C1642.99,191.483 1636.3,198.176 1628.05,198.176L1589.82,198.176C1573.76,198.176 1558.51,191.151 1548.07,178.948C1537.63,166.746 1533.05,150.587 1535.54,134.724L1541.63,95.923ZM1544.49,270.553C1543.21,278.698 1535.56,284.273 1527.42,282.995C1519.27,281.718 1513.7,274.068 1514.98,265.923L1521.06,227.123C1522.2,219.886 1520.11,212.514 1515.35,206.948C1510.59,201.381 1503.63,198.176 1496.3,198.176L1458.07,198.176C1449.82,198.176 1443.13,191.483 1443.13,183.238C1443.13,174.994 1449.82,168.301 1458.07,168.301L1496.3,168.301C1512.36,168.301 1527.62,175.326 1538.05,187.529C1548.49,199.731 1553.07,215.889 1550.58,231.753L1544.49,270.553Z" style="fill:white;"/>
                    </g>
                </g>
            </g>
        </g>
    </g>
</svg>
