<?xml version="1.0" encoding="UTF-8" standalone="no"?>
<!DOCTYPE svg PUBLIC "-//W3C//DTD SVG 1.1//EN" "http://www.w3.org/Graphics/SVG/1.1/DTD/svg11.dtd">
<svg width="100%" height="100%" viewBox="0 0 243 64" version="1.1" xmlns="http://www.w3.org/2000/svg" xmlns:xlink="http://www.w3.org/1999/xlink" xml:space="preserve" xmlns:serif="http://www.serif.com/" style="fill-rule:evenodd;clip-rule:evenodd;stroke-linejoin:round;stroke-miterlimit:2;">
    <g transform="matrix(1,0,0,1,-2385,-77.5946)">
        <g transform="matrix(0.565205,0,0,0.453451,1079.48,77.5946)">
            <rect id="wordmark" x="2309.82" y="0" width="428.194" height="141.14" style="fill:none;"/>
            <g id="wordmark1" serif:id="wordmark">
                <g transform="matrix(5.35804,0,0,6.67853,87.9408,-3438.38)">
                    <g transform="matrix(1,0,0,1,2.35408,0)">
                        <path d="M412.333,530.632L413.463,523.375C413.608,522.463 413.979,521.749 414.573,521.234C415.168,520.718 415.928,520.46 416.854,520.46L419.867,520.46L419.491,522.979L417.29,522.979C417.105,522.979 416.936,523.041 416.784,523.167C416.632,523.292 416.543,523.454 416.517,523.653L415.406,530.632L412.333,530.632Z" style="fill:white;fill-rule:nonzero;"/>
                    </g>
                    <g transform="matrix(1,0,0,1,2.35408,0)">
                        <path d="M425.26,530.632C424.229,530.632 423.314,530.47 422.514,530.146C421.715,529.822 421.087,529.323 420.631,528.649C420.175,527.975 419.947,527.136 419.947,526.131C419.947,525.272 420.099,524.482 420.403,523.762C420.707,523.041 421.13,522.417 421.672,521.888C422.214,521.359 422.848,520.949 423.575,520.659C424.302,520.368 425.089,520.222 425.935,520.222C426.714,520.222 427.385,520.351 427.947,520.609C428.509,520.867 428.942,521.217 429.246,521.66C429.55,522.103 429.702,522.589 429.702,523.117C429.702,523.778 429.543,524.35 429.226,524.832C428.909,525.315 428.476,525.718 427.927,526.042C427.379,526.366 426.744,526.62 426.024,526.805C425.303,526.99 424.54,527.109 423.734,527.162C423.628,527.175 423.535,527.182 423.456,527.182C423.377,527.182 423.298,527.175 423.218,527.162C423.377,527.453 423.635,527.681 423.992,527.846C424.348,528.011 424.818,528.094 425.399,528.094L428.116,528.094L427.719,530.632L425.26,530.632ZM423.06,525.279L423.278,525.279C423.952,525.199 424.507,525.093 424.943,524.961C425.379,524.829 425.72,524.684 425.964,524.525C426.209,524.366 426.381,524.201 426.48,524.029C426.579,523.858 426.629,523.699 426.629,523.554C426.629,523.342 426.543,523.157 426.371,522.998C426.199,522.84 425.935,522.76 425.578,522.76C425.115,522.76 424.699,522.889 424.329,523.147C423.958,523.405 423.664,523.722 423.446,524.099C423.228,524.476 423.099,524.849 423.06,525.219L423.06,525.279Z" style="fill:white;fill-rule:nonzero;"/>
                    </g>
                    <g transform="matrix(1,0,0,1,2.35408,0)">
                        <path d="M434.718,530.89C433.885,530.89 433.162,530.691 432.547,530.295C431.932,529.898 431.457,529.35 431.12,528.649C430.782,527.949 430.614,527.149 430.614,526.25C430.614,525.364 430.753,524.555 431.03,523.821C431.308,523.088 431.708,522.45 432.23,521.908C432.752,521.366 433.367,520.949 434.074,520.659C434.781,520.368 435.558,520.222 436.404,520.222C437.051,520.222 437.682,520.318 438.297,520.51C438.912,520.702 439.464,520.992 439.953,521.382C440.442,521.772 440.832,522.268 441.123,522.869C441.413,523.471 441.559,524.188 441.559,525.021C441.559,525.206 441.549,525.391 441.529,525.576C441.509,525.761 441.473,525.992 441.42,526.27L440.706,530.632L437.692,530.632L437.93,529.085L437.871,529.085C437.487,529.641 437.012,530.08 436.443,530.404C435.875,530.728 435.3,530.89 434.718,530.89ZM435.848,528.233C436.324,528.233 436.757,528.094 437.147,527.816C437.537,527.539 437.848,527.172 438.079,526.716C438.31,526.26 438.426,525.754 438.426,525.199C438.426,524.763 438.343,524.376 438.178,524.039C438.013,523.702 437.775,523.435 437.464,523.236C437.154,523.038 436.774,522.939 436.324,522.939C435.862,522.939 435.435,523.071 435.045,523.335C434.655,523.6 434.345,523.963 434.113,524.426C433.882,524.889 433.767,525.397 433.767,525.953C433.767,526.429 433.852,526.838 434.024,527.182C434.196,527.526 434.434,527.787 434.738,527.965C435.042,528.144 435.412,528.233 435.848,528.233Z" style="fill:white;fill-rule:nonzero;"/>
                    </g>
                    <path d="M449.133,534.657L449.529,532.139L450.779,532.139C451.003,532.139 451.192,532.093 451.344,532C451.496,531.908 451.615,531.775 451.701,531.604C451.786,531.432 451.843,531.233 451.869,531.009L453.138,522.979L451.453,522.979L451.849,520.46L453.554,520.46L453.773,519.033C453.918,518.134 454.255,517.43 454.784,516.921C455.312,516.412 456.092,516.158 457.123,516.158L464.479,516.158L462.179,530.632L459.106,530.632L460.99,518.676L457.48,518.676C457.322,518.676 457.176,518.732 457.044,518.844C456.912,518.957 456.833,519.092 456.806,519.251L456.628,520.46L459.245,520.46L458.848,522.979L456.211,522.979L454.903,531.385C454.744,532.416 454.331,533.219 453.663,533.794C452.996,534.369 452.127,534.657 451.056,534.657L449.133,534.657Z" style="fill:white;fill-rule:nonzero;"/>
                    <path d="M468.901,530.89C468.068,530.89 467.344,530.691 466.73,530.295C466.115,529.898 465.639,529.35 465.302,528.649C464.965,527.949 464.797,527.149 464.797,526.25C464.797,525.364 464.935,524.555 465.213,523.821C465.491,523.088 465.89,522.45 466.413,521.908C466.935,521.366 467.549,520.949 468.257,520.659C468.964,520.368 469.74,520.222 470.586,520.222C471.234,520.222 471.865,520.318 472.48,520.51C473.094,520.702 473.646,520.992 474.135,521.382C474.625,521.772 475.014,522.268 475.305,522.869C475.596,523.471 475.741,524.188 475.741,525.021C475.741,525.206 475.732,525.391 475.712,525.576C475.692,525.761 475.656,525.992 475.603,526.27L474.889,530.632L471.875,530.632L472.113,529.085L472.054,529.085C471.67,529.641 471.194,530.08 470.626,530.404C470.058,530.728 469.483,530.89 468.901,530.89ZM470.031,528.233C470.507,528.233 470.94,528.094 471.33,527.816C471.72,527.539 472.03,527.172 472.262,526.716C472.493,526.26 472.609,525.754 472.609,525.199C472.609,524.763 472.526,524.376 472.361,524.039C472.196,523.702 471.958,523.435 471.647,523.236C471.336,523.038 470.956,522.939 470.507,522.939C470.044,522.939 469.618,523.071 469.228,523.335C468.838,523.6 468.528,523.963 468.296,524.426C468.065,524.889 467.949,525.397 467.949,525.953C467.949,526.429 468.035,526.838 468.207,527.182C468.379,527.526 468.617,527.787 468.921,527.965C469.225,528.144 469.595,528.233 470.031,528.233Z" style="fill:white;fill-rule:nonzero;"/>
                    <path d="M477.229,530.632L478.359,523.375C478.504,522.463 478.874,521.749 479.469,521.234C480.064,520.718 480.824,520.46 481.749,520.46L484.763,520.46L484.386,522.979L482.185,522.979C482,522.979 481.832,523.041 481.68,523.167C481.528,523.292 481.439,523.454 481.412,523.653L480.302,530.632L477.229,530.632Z" style="fill:white;fill-rule:nonzero;"/>
                    <path d="M490.156,530.632C489.125,530.632 488.21,530.47 487.41,530.146C486.61,529.822 485.982,529.323 485.526,528.649C485.07,527.975 484.842,527.136 484.842,526.131C484.842,525.272 484.994,524.482 485.298,523.762C485.602,523.041 486.025,522.417 486.567,521.888C487.109,521.359 487.744,520.949 488.471,520.659C489.198,520.368 489.984,520.222 490.83,520.222C491.61,520.222 492.281,520.351 492.843,520.609C493.405,520.867 493.837,521.217 494.141,521.66C494.445,522.103 494.597,522.589 494.597,523.117C494.597,523.778 494.439,524.35 494.122,524.832C493.804,525.315 493.371,525.718 492.823,526.042C492.274,526.366 491.64,526.62 490.919,526.805C490.199,526.99 489.436,527.109 488.629,527.162C488.524,527.175 488.431,527.182 488.352,527.182C488.272,527.182 488.193,527.175 488.114,527.162C488.272,527.453 488.53,527.681 488.887,527.846C489.244,528.011 489.713,528.094 490.295,528.094L493.011,528.094L492.615,530.632L490.156,530.632ZM487.955,525.279L488.173,525.279C488.847,525.199 489.403,525.093 489.839,524.961C490.275,524.829 490.615,524.684 490.86,524.525C491.105,524.366 491.276,524.201 491.376,524.029C491.475,523.858 491.524,523.699 491.524,523.554C491.524,523.342 491.438,523.157 491.266,522.998C491.095,522.84 490.83,522.76 490.473,522.76C490.011,522.76 489.594,522.889 489.224,523.147C488.854,523.405 488.56,523.722 488.342,524.099C488.124,524.476 487.995,524.849 487.955,525.219L487.955,525.279Z" style="fill:white;fill-rule:nonzero;"/>
                    <g transform="matrix(0.302682,0,0,0.304348,373.821,366.284)">
                        <path d="M255.344,492.448L245.207,492.448L237.634,540L247.772,540L255.344,492.448Z" style="fill:white;"/>
                    </g>
                </g>
            </g>
        </g>
    </g>
</svg>
